# xmcd
#
# Track frame offsets: 
#        182
#        18552
#        30737
#        47920
#        63830
#        80280
#        102800
#        117030
#        130680
#        148080
#        164047
#        175112
#        189070
#        215345
#        228465
#        247297
#        255582
#        270002
#
# Disc length: 3719 seconds
#
# Revision: 1
# Processed by: cddbd v1.5.2PL0 Copyright (c) Steve Scherf et al.
# Submitted via: ExactAudioCopy v0.99pb1
#
DISCID=ef0e8512
DTITLE=Various Artist - Mississippi Blues - New Orleans to Chicago (1
DTITLE=)
DYEAR=1996
DGENRE=Blues
TTITLE0=Dr Ross - Cat Squlrrel
TTITLE1=Dr Ross - I Want All My Friends To Know
TTITLE2=Dr Ross - Boogie For The Doctor
TTITLE3=Dr Ross - Hobo Blues
TTITLE4=Dr Ross - Break 'Em On Down
TTITLE5=Dr Ross - G M Blues
TTITLE6=Dr Ross - Baby Please Don't Go
TTITLE7=Dr Ross - That's Alright Now, Mama
TTITLE8=Dr Ross - Little School Girl
TTITLE9=Blind Joe Hill - Boogie In The Dark
TTITLE10=Blind Joe Hill - Tin Pan Alley
TTITLE11=Blind Joe Hill - Rock The Night Away
TTITLE12=Blind Joe Hill - She Fool Me
TTITLE13=Blind Joe Hill - Walkin' By Myself
TTITLE14=Blind Joe Hill - Mannish Boy
TTITLE15=Blind Joe Hill - Hey Little Girl
TTITLE16=Blind Joe Hill - Key to the Highway
TTITLE17=Blind Joe Hill - She's Bad
EXTD=
EXTT0=
EXTT1=
EXTT2=
EXTT3=
EXTT4=
EXTT5=
EXTT6=
EXTT7=
EXTT8=
EXTT9=
EXTT10=
EXTT11=
EXTT12=
EXTT13=
EXTT14=
EXTT15=
EXTT16=
EXTT17=
PLAYORDER=
